ply
format ascii 1.0
comment template for a PLY header for a mesh with <256 faces
element vertex 80 
property float32 x
property float32 y
property float32 z
comment list has form list-length : elements
element face 156 
property list uint8 int32 vertex_indices
end_header

-0.1454 -0.2002 -2.3662
1.1454 -0.2002 -2.3662
-0.5444 1.0275 -2.3662
1.5444 1.0275 -2.3662
0.5000 1.7863 -2.3662
-0.1454 -2.0268 -1.2372
1.1454 -2.0268 -1.2372
-0.5444 -2.5759 -0.1391
1.5444 -2.5759 -0.1391
0.5000 -2.9152 0.5395
-1.8827 -0.7647 -1.2372
-2.2816 0.4631 -1.2372
-2.2816 -1.3137 -0.1391
-2.9271 0.6728 -0.1391
-2.9271 -0.4253 0.5395
2.8827 -0.7647 -1.2372
3.2816 0.4631 -1.2372
3.2816 -1.3137 -0.1391
3.9271 0.6728 -0.1391
3.9271 -0.4253 0.5395
-0.8090 -1.1135 -1.8017
-1.6180 2.5053 -1.2372
1.8090 -1.1135 -1.8017
-0.5737 3.2641 -1.2372
-2.2635 2.7150 -0.1391
-0.5737 3.9427 -0.1391
-1.6180 3.6034 0.5395
2.6180 2.5053 -1.2372
-1.6180 -2.2270 1.6875
-1.6180 1.3764 -1.8017
1.5737 3.2641 -1.2372
-0.5737 -2.5664 2.3662
3.2635 2.7150 -0.1391
-2.2635 -1.3387 2.3662
1.5737 3.9427 -0.1391
-0.5737 -1.8877 3.4643
2.6180 3.6034 0.5395
-1.6180 -1.1289 3.4643
2.6180 -2.2270 1.6875
-1.6180 -2.2270 0.4253
2.6180 1.3764 -1.8017
1.5737 -2.5664 2.3662
3.2635 -1.3387 2.3662
1.5737 -1.8877 3.4643
2.6180 -1.1289 3.4643
-2.9271 1.8017 1.6875
2.6180 -2.2270 0.4253
0.5000 2.9152 -1.8017
-2.9271 0.7036 2.3662
-2.2816 2.6901 2.3662
-2.2816 0.9133 3.4643
-1.8827 2.1410 3.4643
3.9271 1.8017 1.6875
-2.9271 1.8017 0.4253
0.5000 -2.9152 1.8017
3.9271 0.7036 2.3662
3.2816 2.6901 2.3662
3.2816 0.9133 3.4643
2.8827 2.1410 3.4643
0.5000 4.2916 1.6875
3.9271 1.8017 0.4253
-2.9271 -0.4253 1.8017
-0.5444 3.9523 2.3662
1.5444 3.9523 2.3662
-0.1454 3.4032 3.4643
1.1454 3.4032 3.4643
0.5000 -0.4099 4.5932
0.5000 4.2916 0.4253
3.9271 -0.4253 1.8017
-0.5444 0.3489 4.5932
1.5444 0.3489 4.5932
-0.1454 1.5766 4.5932
1.1454 1.5766 4.5932
0.5000 -1.5388 4.0287
-1.6180 3.6034 1.8017
-1.6180 -0.0000 4.0287
2.6180 3.6034 1.8017
2.6180 -0.0000 4.0287
-0.8090 2.4899 4.0287
1.8090 2.4899 4.0287
3 2 47 23
3 2 21 23
3 2 47 4
3 2 21 29
3 11 53 13
3 11 53 24
3 11 21 29
3 11 21 24
3 11 20 0
3 11 2 29
3 11 20 10
3 11 2 0
3 78 62 64
3 78 62 74
3 78 49 74
3 78 49 51
3 68 19 18
3 68 60 18
3 68 52 60
3 68 52 55
3 7 28 39
3 7 31 28
3 7 9 54
3 7 31 54
3 6 46 8
3 6 17 46
3 6 22 15
3 6 17 15
3 6 20 0
3 6 20 5
3 6 1 0
3 6 22 1
3 6 9 8
3 6 7 9
3 6 7 5
3 16 19 18
3 16 17 15
3 16 17 19
3 3 22 1
3 3 22 15
3 3 16 40
3 3 16 15
3 3 1 0
3 3 2 4
3 3 2 0
3 27 60 18
3 27 60 32
3 27 16 18
3 27 16 40
3 27 47 4
3 27 47 30
3 27 3 4
3 27 3 40
3 45 50 48
3 45 49 51
3 45 50 51
3 45 26 74
3 45 53 24
3 45 26 24
3 45 49 74
3 43 41 54
3 43 73 35
3 43 31 35
3 43 31 54
3 33 35 37
3 33 31 35
3 33 31 28
3 33 75 37
3 33 50 75
3 33 50 48
3 33 61 48
3 14 53 13
3 14 61 48
3 14 45 53
3 14 45 48
3 25 26 24
3 25 21 23
3 25 21 24
3 25 26 74
3 25 62 74
3 25 62 59
3 25 67 59
3 63 62 64
3 63 62 59
3 63 65 64
3 56 63 76
3 56 65 79
3 56 58 79
3 56 63 65
3 56 36 76
3 56 60 32
3 56 52 60
3 56 36 32
3 70 73 66
3 70 77 44
3 70 43 44
3 70 43 73
3 57 72 79
3 57 58 79
3 57 70 72
3 57 70 77
3 57 52 55
3 57 56 52
3 57 56 58
3 71 65 64
3 71 72 79
3 71 65 79
3 71 78 64
3 42 77 44
3 42 68 55
3 42 57 55
3 42 57 77
3 12 20 5
3 12 20 10
3 12 7 5
3 12 7 39
3 12 11 13
3 12 11 10
3 12 14 13
3 12 28 39
3 12 33 28
3 12 33 61
3 12 14 61
3 34 47 23
3 34 47 30
3 34 25 67
3 34 25 23
3 34 27 30
3 34 27 32
3 34 36 32
3 34 67 59
3 34 36 76
3 34 63 76
3 34 63 59
3 69 35 37
3 69 75 37
3 69 73 35
3 69 73 66
3 69 50 75
3 69 50 51
3 69 78 51
3 69 71 78
3 69 70 72
3 69 70 66
3 69 71 72
3 38 9 8
3 38 46 8
3 38 41 54
3 38 9 54
3 38 43 44
3 38 43 41
3 38 42 44
3 38 17 46
3 38 17 19
3 38 68 19
3 38 42 68
