ply
format ascii 1.0
comment VCGLIB generated
element vertex 80
property float x
property float y
property float z
element face 156
property list uchar int vertex_indices
end_header
-1.30176 0.920043 -2.06697 
-1.20769 0.920043 -2.06697 
-1.33083 1.00951 -2.06697 
-1.17862 1.00951 -2.06697 
-1.25473 1.0648 -2.06697 
-1.30176 0.751594 -1.96286 
-1.20769 0.751594 -1.96286 
-1.33083 0.711586 -1.88285 
-1.17862 0.711586 -1.88285 
-1.25473 0.686857 -1.83339 
-1.46197 0.867989 -1.96286 
-1.49104 0.957455 -1.96286 
-1.49104 0.827981 -1.88285 
-1.53807 0.972734 -1.88285 
-1.53807 0.892718 -1.83339 
-1.04748 0.867989 -1.96286 
-1.01841 0.957455 -1.96286 
-1.01841 0.827981 -1.88285 
-0.971378 0.972734 -1.88285 
-0.971378 0.892718 -1.83339 
-1.36295 0.835819 -2.01492 
-1.42984 1.14579 -1.96286 
-1.1465 0.835819 -2.01492 
-1.35373 1.20108 -1.96286 
-1.47687 1.16107 -1.88285 
-1.35373 1.25053 -1.88285 
-1.42984 1.2258 -1.83339 
-1.07961 1.14579 -1.96286 
-1.42984 0.743756 -1.7144 
-1.42984 1.04168 -2.01492 
-1.15572 1.20108 -1.96286 
-1.35373 0.719027 -1.66494 
-1.03258 1.16107 -1.88285 
-1.47687 0.808493 -1.66494 
-1.15572 1.25053 -1.88285 
-1.35373 0.768485 -1.58491 
-1.07961 1.2258 -1.83339 
-1.42984 0.823772 -1.58491 
-1.07961 0.743756 -1.7144 
-1.42984 0.743756 -1.83079 
-1.07961 1.04168 -2.01492 
-1.15572 0.719027 -1.66494 
-1.03258 0.808493 -1.66494 
-1.15572 0.768485 -1.58491 
-1.07961 0.823772 -1.58491 
-1.53807 1.07684 -1.7144 
-1.07961 0.743756 -1.83079 
-1.25473 1.16891 -2.01492 
-1.53807 0.996818 -1.66494 
-1.49104 1.14158 -1.66494 
-1.49104 1.01211 -1.58491 
-1.46197 1.10157 -1.58491 
-0.971378 1.07684 -1.7144 
-1.53807 1.07684 -1.83079 
-1.25473 0.686857 -1.71699 
-0.971378 0.996818 -1.66494 
-1.01841 1.14158 -1.66494 
-1.01841 1.01211 -1.58491 
-1.04748 1.10157 -1.58491 
-1.25473 1.2827 -1.7144 
-0.971378 1.07684 -1.83079 
-1.53807 0.892718 -1.71699 
-1.33083 1.25797 -1.66494 
-1.17862 1.25797 -1.66494 
-1.30176 1.21797 -1.58491 
-1.20769 1.21797 -1.58491 
-1.25473 0.904756 -1.48081 
-1.25473 1.2827 -1.83079 
-0.971378 0.892718 -1.71699 
-1.33083 0.960051 -1.48081 
-1.17862 0.960051 -1.48081 
-1.30176 1.04952 -1.48081 
-1.20769 1.04952 -1.48081 
-1.25473 0.800655 -1.53287 
-1.42984 1.2258 -1.71699 
-1.42984 0.927881 -1.53287 
-1.07961 1.2258 -1.71699 
-1.07961 0.927881 -1.53287 
-1.36295 1.13374 -1.53287 
-1.1465 1.13374 -1.53287 
3 62 67 25 
3 62 26 74 
3 62 67 59 
3 62 26 25 
3 12 7 5 
3 12 7 39 
3 12 20 5 
3 12 20 10 
3 61 14 13 
3 61 53 13 
3 61 45 53 
3 61 45 48 
3 11 14 13 
3 11 12 10 
3 11 12 14 
3 0 29 2 
3 0 11 10 
3 0 20 10 
3 0 11 29 
3 3 2 4 
3 3 0 1 
3 3 0 2 
3 16 22 1 
3 16 22 15 
3 16 3 40 
3 16 3 1 
3 16 19 18 
3 16 17 15 
3 16 17 19 
3 27 47 30 
3 27 47 4 
3 27 3 4 
3 27 3 40 
3 27 60 18 
3 27 60 32 
3 27 16 18 
3 27 16 40 
3 43 31 35 
3 43 41 54 
3 43 31 54 
3 43 73 35 
3 63 56 76 
3 63 65 79 
3 63 58 79 
3 63 56 58 
3 63 65 64 
3 63 62 64 
3 63 62 59 
3 52 68 19 
3 52 60 18 
3 52 19 18 
3 52 68 55 
3 52 60 32 
3 52 36 76 
3 52 56 76 
3 52 36 32 
3 70 73 66 
3 70 77 44 
3 70 43 44 
3 70 43 73 
3 57 72 79 
3 57 58 79 
3 57 70 72 
3 57 70 77 
3 57 56 58 
3 57 52 56 
3 57 52 55 
3 71 65 64 
3 71 72 79 
3 71 65 79 
3 71 78 64 
3 49 62 64 
3 49 78 64 
3 49 78 51 
3 49 62 74 
3 49 50 48 
3 49 50 51 
3 49 45 48 
3 49 26 24 
3 49 53 24 
3 49 26 74 
3 49 45 53 
3 33 75 37 
3 33 50 75 
3 33 50 48 
3 33 61 48 
3 38 8 46 
3 38 9 54 
3 38 41 54 
3 38 8 9 
3 6 0 1 
3 6 20 5 
3 6 22 1 
3 6 0 20 
3 6 7 9 
3 6 7 5 
3 6 8 9 
3 6 17 46 
3 6 22 15 
3 6 17 15 
3 6 8 46 
3 21 53 13 
3 21 53 24 
3 21 11 29 
3 21 11 13 
3 21 29 2 
3 21 2 4 
3 21 47 4 
3 21 23 47 
3 21 26 24 
3 21 26 25 
3 21 23 25 
3 34 23 25 
3 34 67 25 
3 34 47 30 
3 34 23 47 
3 34 67 59 
3 34 36 76 
3 34 63 59 
3 34 63 76 
3 34 36 32 
3 34 27 32 
3 34 27 30 
3 69 35 37 
3 69 75 37 
3 69 73 35 
3 69 73 66 
3 69 50 75 
3 69 78 51 
3 69 50 51 
3 69 71 78 
3 69 70 72 
3 69 70 66 
3 69 71 72 
3 28 9 54 
3 28 31 54 
3 28 7 39 
3 28 7 9 
3 28 35 37 
3 28 31 35 
3 28 33 37 
3 28 12 39 
3 28 12 14 
3 28 61 14 
3 28 33 61 
3 42 77 44 
3 42 68 55 
3 42 57 55 
3 42 57 77 
3 42 43 44 
3 42 43 41 
3 42 38 41 
3 42 17 46 
3 42 17 19 
3 42 68 19 
3 42 38 46 
